# xmcd
#
# Track frame offsets:
#	150
#	11024
#	20772
#	33066
#	45415
#	51885
#	61117
#	71186
#	81110
#	97127
#	115897
#	130043
#	143691
#	155829
#	166249
#	175540
#	184298
#	197288
#	209359
#	224099
#	240022
#	254454
#	266641
#
# Disc length: 3805 seconds
#
# Revision: 0
# Processed by: cddbd v1.4PL0 Copyright (c) Steve Scherf et al.
# Submitted via: EasyCDDAExtractor 4.6.9.1
#
DISCID=410edb17
DTITLE=Roger Miller - King Of The Road - Disc 3
DYEAR=1995
DGENRE=Country
TTITLE0=The Ballad Of Waterhole #3 (Code Of The West)
TTITLE1=Old Toy Trains
TTITLE2=Little Green Apples
TTITLE3=What I'd Give To Be The Wind
TTITLE4=Boeing Boeing 707
TTITLE5=Treat Me Like A Human
TTITLE6=What Are Those Things (With Big Black Wings)
TTITLE7=Only Daddy That'll Walk The Line
TTITLE8=Swiss Cottage Place
TTITLE9=Me And Bobbie McGee (LP Version)
TTITLE10=Where Have All The Average People Gone
TTITLE11=The Best Of All Possible World
TTITLE12=Invitation To The Blues
TTITLE13=Tall, Tall Trees
TTITLE14=Don't We All Have The Right
TTITLE15=That's The Way I Feel
TTITLE16=Half A Mind
TTITLE17=Hoppy's Gone
TTITLE18=What Would Mama Say
TTITLE19=Orange Blossom Special (Live) (with Danny Gatton)
TTITLE20=Old Friends (With Ray Price and Willie Nelson)
TTITLE21=Guv'ment (From Big River)
TTITLE22=River In The Rain (From Big River)
EXTD=
EXTT0=
EXTT1=
EXTT2=
EXTT3=
EXTT4=
EXTT5=
EXTT6=
EXTT7=
EXTT8=
EXTT9=
EXTT10=
EXTT11=
EXTT12=
EXTT13=
EXTT14=
EXTT15=
EXTT16=
EXTT17=
EXTT18=
EXTT19=
EXTT20=
EXTT21=
EXTT22=
PLAYORDER=
